<svg width="390" height="844" viewBox="0 0 390 844" fill="none" xmlns="http://www.w3.org/2000/svg">
<g clip-path="url(#clip0_2276_1260)">
<rect width="390" height="844" fill="white"/>
<rect y="315" width="390" height="529" fill="url(#paint0_linear_2276_1260)" fill-opacity="0.45"/>
<path d="M185 314H201L199.285 328.147C195.297 361.047 205.934 394.043 228.387 418.42C250.393 442.312 261.069 474.509 257.699 506.816L247.91 600.667C242.816 649.508 255.868 698.516 284.579 738.354L360 843H-2L-5.88248 795.578C-7.9422 770.42 -5.22084 745.1 2.13789 720.954L10.0203 695.09C18.6263 666.851 31.3532 640.038 47.7895 615.516L63.5944 591.936C77.7682 570.789 95.3249 552.119 115.561 536.673L118.848 534.164C161.79 501.387 183.419 447.785 175.249 394.385L173.614 383.694C169.965 359.844 173.95 335.45 185 314Z" fill="#83898A"/>
<rect x="141" y="658" width="18" height="69" fill="#D9D9D9"/>
<path d="M174.825 558.803L182.127 561.173L172.973 585.814L164.774 613.363L152.438 609.262L163.924 581.991L174.825 558.803Z" fill="#D9D9D9"/>
<path d="M210.733 441.837L209.404 442.356L210.352 447.347C210.546 448.369 210.66 449.405 210.693 450.445L210.87 456.029L213.052 456.125L212.945 454.147C212.745 450.456 212.136 446.799 211.13 443.242L210.733 441.837Z" fill="#D9D9D9"/>
<path d="M205.868 425.195L205.038 425.66L205.952 428.286C206.3 429.285 206.568 430.311 206.754 431.352L207.3 434.415L208.753 434.27L208.687 433.941C208.079 430.929 207.133 427.996 205.868 425.195Z" fill="#D9D9D9"/>
<path d="M199.648 412.12L199.192 412.661L200.445 415.877L202.36 420.42L203.341 419.987L201.439 415.48L199.648 412.12Z" fill="#D9D9D9"/>
<path d="M195.51 399.283L195 399.283L195.886 402.608L197.253 407.322L198.052 407.008L196.435 402.516L195.51 399.283Z" fill="#D9D9D9"/>
<path d="M191.746 387.765L191.239 387.779L192.027 390.493L193.256 394.338L193.822 394.322L192.576 390.402L191.746 387.765Z" fill="#D9D9D9"/>
<path d="M188.949 378.258L188.443 378.222L188.884 380.557L189.619 383.874L190.183 383.914L189.44 380.533L188.949 378.258Z" fill="#D9D9D9"/>
<path d="M187.716 371.013L187.22 370.918L187.389 372.492L187.737 374.744L188.29 374.849L187.942 372.555L187.716 371.013Z" fill="#D9D9D9"/>
<path d="M186.933 364.095L186.437 364.001L186.608 365.574L186.961 367.826L187.514 367.93L187.162 365.636L186.933 364.095Z" fill="#D9D9D9"/>
<path d="M186.123 357.1L185.639 356.956L185.65 358.539L185.772 360.814L186.311 360.975L186.194 358.657L186.123 357.1Z" fill="#D9D9D9"/>
<path d="M186.797 350.441L186.308 350.418L186.138 351.799L185.887 353.803L186.382 354.069L186.645 352.029L186.797 350.441Z" fill="#D9D9D9"/>
<path d="M187.587 345.27L187.17 344.987L186.957 346.004L186.747 347.508L187.212 347.823L187.432 346.294L187.587 345.27Z" fill="#D9D9D9"/>
<path d="M188.539 340.305L188.137 340L187.96 340.863L187.797 342.154L188.245 342.494L188.416 341.182L188.539 340.305Z" fill="#D9D9D9"/>
<path d="M189.429 335.362L189.077 335.362L188.875 336.009L188.463 337.376L188.999 337.353L189.226 336.352L189.429 335.362Z" fill="#D9D9D9"/>
<path d="M190.264 331.231L190.008 331.07L189.909 331.432L189.707 332.199L190.024 332.282L190.127 331.706L190.264 331.231Z" fill="#D9D9D9"/>
<path d="M190.998 328.236L190.745 328.071L190.641 328.431L190.427 329.195L190.743 329.282L190.855 328.708L190.998 328.236Z" fill="#D9D9D9"/>
<path d="M192.003 325.239L191.752 325.071L191.643 325.43L191.422 326.192L191.737 326.283L191.855 325.71L192.003 325.239Z" fill="#D9D9D9"/>
<path d="M193.018 322.248L192.772 322.073L192.652 322.428L192.406 323.182L192.718 323.283L192.855 322.715L193.018 322.248Z" fill="#D9D9D9"/>
<path d="M194.013 319.245L193.765 319.072L193.649 319.429L193.412 320.186L193.726 320.283L193.855 319.713L194.013 319.245Z" fill="#D9D9D9"/>
<path d="M195.013 316.245L194.765 316.072L194.649 316.429L194.412 317.186L194.726 317.283L194.855 316.713L195.013 316.245Z" fill="#D9D9D9"/>
<rect width="390" height="459" fill="url(#paint1_linear_2276_1260)"/>
<path d="M321.925 310.644H262.697V314.92H321.925V310.644Z" fill="#004C9A"/>
<path opacity="0.7" d="M321.925 310.644H262.697V314.92H321.925V310.644Z" fill="white"/>
<path opacity="0.5" d="M321.925 310.644H262.697V311.857L321.925 311.408V310.644Z" fill="#004C9A"/>
<path d="M322.565 309.741H262.056V310.645H322.565V309.741Z" fill="#004C9A"/>
<path d="M273.175 308.413H267.767V309.74H273.175V308.413Z" fill="#C7C7C7"/>
<path d="M269.35 307.629H268.585V308.413H269.35V307.629Z" fill="#C7C7C7"/>
<path d="M272.356 307.629H271.591V308.413H272.356V307.629Z" fill="#C7C7C7"/>
<path d="M319.455 308.413H314.047V309.74H319.455V308.413Z" fill="#C7C7C7"/>
<path d="M315.63 307.629H314.865V308.413H315.63V307.629Z" fill="#C7C7C7"/>
<path d="M318.637 307.629H317.872V308.413H318.637V307.629Z" fill="#C7C7C7"/>
<path d="M312.751 308.413H307.343V309.74H312.751V308.413Z" fill="#C7C7C7"/>
<path d="M308.925 307.629H308.16V308.413H308.925V307.629Z" fill="#C7C7C7"/>
<path d="M311.932 307.629H311.167V308.413H311.932V307.629Z" fill="#C7C7C7"/>
<path d="M325.739 315.824H258.883V343.653H325.739V315.824Z" fill="#004C9A"/>
<path opacity="0.7" d="M325.739 315.824H258.883V343.653H325.739V315.824Z" fill="white"/>
<path opacity="0.5" d="M325.739 339.69H258.883V343.653H325.739V339.69Z" fill="#004C9A"/>
<path d="M326.379 314.921H258.241V315.825H326.379V314.921Z" fill="#004C9A"/>
<path opacity="0.5" d="M325.739 315.824H258.883V317.037L325.739 316.588V315.824Z" fill="#004C9A"/>
<path d="M263.032 318.443H260.098V323.144H263.032V318.443Z" fill="#59B9E5"/>
<path d="M266.185 318.443H263.25V323.144H266.185V318.443Z" fill="#59B9E5"/>
<path d="M269.337 318.443H266.403V323.144H269.337V318.443Z" fill="#59B9E5"/>
<path d="M273.338 318.443H270.404V323.144H273.338V318.443Z" fill="#59B9E5"/>
<path d="M276.49 318.443H273.556V323.144H276.49V318.443Z" fill="#59B9E5"/>
<path d="M279.643 318.443H276.709V323.144H279.643V318.443Z" fill="#59B9E5"/>
<path d="M263.032 324.793H260.098V329.494H263.032V324.793Z" fill="#59B9E5"/>
<path d="M266.185 324.793H263.25V329.494H266.185V324.793Z" fill="#59B9E5"/>
<path d="M269.337 324.793H266.403V329.494H269.337V324.793Z" fill="#59B9E5"/>
<path d="M273.338 324.793H270.404V329.494H273.338V324.793Z" fill="#59B9E5"/>
<path d="M276.49 324.793H273.556V329.494H276.49V324.793Z" fill="#59B9E5"/>
<path d="M279.643 324.793H276.709V329.494H279.643V324.793Z" fill="#59B9E5"/>
<path d="M263.032 331.141H260.098V335.842H263.032V331.141Z" fill="#59B9E5"/>
<path d="M266.185 331.141H263.25V335.842H266.185V331.141Z" fill="#59B9E5"/>
<path d="M269.337 331.141H266.403V335.842H269.337V331.141Z" fill="#59B9E5"/>
<path d="M273.338 331.141H270.404V335.842H273.338V331.141Z" fill="#59B9E5"/>
<path d="M276.49 331.141H273.556V335.842H276.49V331.141Z" fill="#59B9E5"/>
<path d="M279.643 331.141H276.709V335.842H279.643V331.141Z" fill="#59B9E5"/>
<path d="M307.912 318.443H304.978V323.144H307.912V318.443Z" fill="#59B9E5"/>
<path d="M311.065 318.443H308.131V323.144H311.065V318.443Z" fill="#59B9E5"/>
<path d="M314.218 318.443H311.283V323.144H314.218V318.443Z" fill="#59B9E5"/>
<path d="M318.218 318.443H315.284V323.144H318.218V318.443Z" fill="#59B9E5"/>
<path d="M321.371 318.443H318.437V323.144H321.371V318.443Z" fill="#59B9E5"/>
<path d="M324.523 318.443H321.589V323.144H324.523V318.443Z" fill="#59B9E5"/>
<path d="M307.912 324.793H304.978V329.494H307.912V324.793Z" fill="#59B9E5"/>
<path d="M311.065 324.793H308.131V329.494H311.065V324.793Z" fill="#59B9E5"/>
<path d="M314.218 324.793H311.283V329.494H314.218V324.793Z" fill="#59B9E5"/>
<path d="M318.218 324.793H315.284V329.494H318.218V324.793Z" fill="#59B9E5"/>
<path d="M321.371 324.793H318.437V329.494H321.371V324.793Z" fill="#59B9E5"/>
<path d="M324.523 324.793H321.589V329.494H324.523V324.793Z" fill="#59B9E5"/>
<path d="M307.912 331.141H304.978V335.842H307.912V331.141Z" fill="#59B9E5"/>
<path d="M311.065 331.141H308.131V335.842H311.065V331.141Z" fill="#59B9E5"/>
<path d="M314.218 331.141H311.283V335.842H314.218V331.141Z" fill="#59B9E5"/>
<path d="M318.218 331.141H315.284V335.842H318.218V331.141Z" fill="#59B9E5"/>
<path d="M321.371 331.141H318.437V335.842H321.371V331.141Z" fill="#59B9E5"/>
<path d="M324.523 331.141H321.589V335.842H324.523V331.141Z" fill="#59B9E5"/>
<path d="M325.739 323.69H258.883V324.232H325.739V323.69Z" fill="white"/>
<path d="M325.739 330.038H258.883V330.581H325.739V330.038Z" fill="white"/>
<path d="M325.739 336.387H258.883V336.93H325.739V336.387Z" fill="white"/>
<path opacity="0.5" d="M325.739 324.232H258.883V324.623L325.739 324.428V324.232Z" fill="#004C9A"/>
<path opacity="0.5" d="M325.739 330.58H258.883V330.971L325.739 330.776V330.58Z" fill="#004C9A"/>
<path opacity="0.5" d="M325.739 336.93H258.883V337.32L325.739 337.125V336.93Z" fill="#004C9A"/>
<path opacity="0.2" d="M260.098 322.39L263.032 319.179V320.603L260.709 323.144H260.098V322.39ZM263.704 318.443L263.246 318.944V320.368L265.002 318.448L263.704 318.443ZM271.561 335.842H272.864L276.49 331.873V331.141H275.857L271.561 335.842ZM276.715 331.633L277.165 331.141H276.715V331.633ZM277.369 329.493H278.671L279.649 328.422V326.997L277.369 329.493ZM305.98 318.443L304.984 319.534V320.957L307.282 318.443H305.98ZM307.918 335.842V335.492L307.598 335.842H307.918ZM308.136 335.842H308.9L311.076 333.467V332.042L308.142 335.253L308.136 335.842ZM311.894 331.141L311.289 331.803V333.228L313.196 331.141H311.894ZM314.223 329.493V328.591L313.4 329.493H314.223ZM315.284 327.431V328.856L318.218 325.645V324.799H317.689L315.284 327.431ZM318.437 325.405L318.994 324.799H318.44L318.437 325.405ZM320.498 323.149L321.372 322.193V320.763L319.196 323.144L320.498 323.149ZM323.492 318.448L321.591 320.529V321.954L324.525 318.743V318.448H323.492ZM323.092 335.847H324.394L324.525 335.704V334.274L323.092 335.847ZM260.105 325.081V325.794L261.021 324.798H260.359L260.105 325.081ZM262.521 323.149L263.039 322.583V321.87L261.862 323.144L262.521 323.149ZM266.165 318.448L263.257 321.63V322.344L266.191 319.132V318.448H266.165ZM266.41 318.448V318.893L266.817 318.448H266.41ZM304.985 326.654V327.367L307.333 324.798H306.681L304.985 326.654ZM308.839 323.144L311.072 320.7V319.987L308.18 323.144H308.839ZM312.483 318.443L311.284 319.748V320.461L313.129 318.443H312.483ZM319.328 335.842L321.378 333.599V332.885L318.676 335.842H319.328ZM322.972 331.141L321.597 332.645V333.358L323.625 331.14L322.972 331.141ZM324.478 329.493H324.53V329.436L324.478 329.493ZM311.065 335.842V335.172L310.452 335.842H311.065ZM311.284 335.645L314.218 332.434V331.721L311.284 334.932V335.645ZM315.284 331.267L315.398 331.142H315.284V331.267ZM316.905 329.493L318.218 328.058V327.343L316.254 329.493H316.905ZM320.548 324.799L318.437 327.11V327.823L321.2 324.799H320.548ZM322.054 323.151H322.706L324.524 321.162V320.448L322.054 323.151ZM260.098 327.055V327.218L262.306 324.799H262.157L260.098 327.055ZM267.962 318.448L263.666 323.144H263.815L266.185 320.551L266.403 320.312L268.111 318.443L267.962 318.448ZM274.128 335.847L276.49 333.261V333.098L273.979 335.847H274.128ZM278.275 331.146L276.709 332.859V333.022L278.427 331.142L278.275 331.146ZM266.607 335.842L269.337 332.854V332.695L266.458 335.846L266.607 335.842ZM270.754 331.141L270.404 331.524V331.692L270.903 331.146L270.754 331.141ZM272.409 329.493L273.338 328.476V328.308L272.26 329.488L272.409 329.493ZM273.554 328.074V328.237L276.488 325.026V324.863L273.554 328.074ZM278.058 323.144H278.207L279.641 321.575V321.415L278.058 323.144ZM261.109 335.842L263.032 333.738V333.025L260.457 335.842H261.109ZM264.753 331.141L263.25 332.785V333.498L265.405 331.141H264.753ZM266.403 329.493H266.911L269.337 326.837V326.124L266.403 329.335V329.493ZM270.551 324.799L270.401 324.963V325.676L271.203 324.799H270.551ZM272.709 323.151L273.335 322.465V321.752L272.06 323.144L272.709 323.151ZM276.353 318.449L273.554 321.513V322.226L276.488 319.016V318.449H276.353ZM276.707 318.449V318.777L277.006 318.449H276.707ZM275.052 335.842L276.49 334.268V333.555L274.4 335.842H275.052ZM278.696 331.141L276.709 333.322V334.035L279.343 331.152L278.696 331.141ZM278.711 335.842H278.86L279.643 334.985V334.826L278.711 335.842ZM306.664 335.842L307.912 334.476V334.313L306.511 335.842H306.664ZM310.811 331.141L308.131 334.074V334.237L310.959 331.141H310.811ZM312.467 329.493L314.219 327.575V327.412L312.318 329.493H312.467ZM316.612 324.793L315.284 326.245V326.408L316.76 324.799L316.612 324.793ZM318.216 323.144V323.034L318.115 323.144H318.216ZM318.434 322.958L321.368 319.748V319.585L318.437 322.793L318.434 322.958ZM322.412 318.446L321.587 319.348V319.511L322.561 318.446H322.412ZM318.437 333.339L318.218 333.579L316.15 335.842H316.299L318.218 333.741L318.437 333.502L320.598 331.141H320.449L318.437 333.339ZM321.951 329.493H322.1L324.524 326.841V326.679L321.951 329.493ZM322.33 335.842H322.479L324.524 333.605V333.447L322.33 335.842Z" fill="white"/>
<path opacity="0.5" d="M280.384 343.657H280.785V310.644H279.946L280.384 343.657Z" fill="#004C9A"/>
<path opacity="0.5" d="M304.237 343.657H303.836V310.644H304.676L304.237 343.657Z" fill="#004C9A"/>
<path d="M300.348 297.215H284.272V300.73H300.348V297.215Z" fill="#004C9A"/>
<path opacity="0.6" d="M300.348 297.215H284.272V300.73H300.348V297.215Z" fill="white"/>
<path opacity="0.5" d="M300.349 297.215H284.272V298.428L300.349 297.98V297.215Z" fill="#004C9A"/>
<path d="M300.989 296.313H283.632V297.216H300.989V296.313Z" fill="#004C9A"/>
<path d="M303.836 303.844H280.785V343.653H303.836V303.844Z" fill="#004C9A"/>
<path opacity="0.7" d="M303.836 303.844H280.785V343.653H303.836V303.844Z" fill="white"/>
<path d="M282.916 301.485H280.785V343.653H282.916V301.485Z" fill="#004C9A"/>
<path opacity="0.8" d="M282.916 301.485H280.785V343.653H282.916V301.485Z" fill="white"/>
<path d="M303.836 301.485H301.705V343.653H303.836V301.485Z" fill="#004C9A"/>
<path opacity="0.8" d="M303.836 301.485H301.705V343.653H303.836V301.485Z" fill="white"/>
<path d="M301.748 300.039H282.913V304.471H301.748V300.039Z" fill="#004C9A"/>
<path opacity="0.5" d="M301.304 343.653H301.705V303.844L300.868 305.149L301.304 343.653Z" fill="#004C9A"/>
<path opacity="0.5" d="M283.317 343.653H282.916V303.844L283.753 305.149L283.317 343.653Z" fill="#004C9A"/>
<path d="M301.704 310.879H282.916V311.422H301.704V310.879Z" fill="white"/>
<path opacity="0.5" d="M301.705 311.422H282.916V311.813L301.705 311.617V311.422Z" fill="#004C9A"/>
<path opacity="0.5" d="M301.705 318.713H282.916V319.104L301.705 318.908V318.713Z" fill="#004C9A"/>
<path opacity="0.5" d="M301.705 326.003H282.916V326.394L301.705 326.199V326.003Z" fill="#004C9A"/>
<path d="M301.704 318.17H282.916V318.713H301.704V318.17Z" fill="white"/>
<path d="M287.714 305.154H284.78V309.855H287.714V305.154Z" fill="#59B9E5"/>
<path d="M291.756 305.154H288.822V309.855H291.756V305.154Z" fill="#59B9E5"/>
<path d="M295.799 305.154H292.865V309.855H295.799V305.154Z" fill="#59B9E5"/>
<path d="M299.842 305.154H296.907V309.855H299.842V305.154Z" fill="#59B9E5"/>
<path d="M287.714 312.446H284.78V317.147H287.714V312.446Z" fill="#59B9E5"/>
<path d="M291.756 312.446H288.822V317.147H291.756V312.446Z" fill="#59B9E5"/>
<path d="M295.799 312.446H292.865V317.147H295.799V312.446Z" fill="#59B9E5"/>
<path d="M299.842 312.446H296.907V317.147H299.842V312.446Z" fill="#59B9E5"/>
<path d="M287.714 319.737H284.78V324.438H287.714V319.737Z" fill="#59B9E5"/>
<path d="M291.756 319.737H288.822V324.438H291.756V319.737Z" fill="#59B9E5"/>
<path d="M295.799 319.737H292.865V324.438H295.799V319.737Z" fill="#59B9E5"/>
<path d="M299.842 319.737H296.907V324.438H299.842V319.737Z" fill="#59B9E5"/>
<path d="M287.714 327.026H284.78V331.727H287.714V327.026Z" fill="#59B9E5"/>
<path d="M291.756 327.026H288.822V331.727H291.756V327.026Z" fill="#59B9E5"/>
<path d="M295.799 327.026H292.865V331.727H295.799V327.026Z" fill="#59B9E5"/>
<path d="M299.842 327.026H296.907V331.727H299.842V327.026Z" fill="#59B9E5"/>
<path opacity="0.5" d="M301.705 326.003H282.916V326.393L301.705 326.199V326.003Z" fill="#004C9A"/>
<path d="M301.704 325.461H282.916V326.003H301.704V325.461Z" fill="white"/>
<path opacity="0.5" d="M301.705 333.294H282.916V333.685L301.705 333.489V333.294Z" fill="#004C9A"/>
<path opacity="0.5" d="M301.705 333.293H282.916V333.684L301.705 333.488V333.293Z" fill="#004C9A"/>
<path d="M301.704 332.75H282.916V333.293H301.704V332.75Z" fill="white"/>
<path d="M295.927 336.058H288.528V343.653H295.927V336.058Z" fill="white"/>
<path d="M292.038 336.558H288.528V343.653H292.038V336.558Z" fill="#59B9E5"/>
<path d="M295.928 336.558H292.418V343.653H295.928V336.558Z" fill="#59B9E5"/>
<path d="M288.528 336.058H287.396V343.653H288.528V336.058Z" fill="white"/>
<path d="M297.813 336.058V334.819H286.808V336.058H297.813Z" fill="white"/>
<path d="M297.059 336.058H295.927V343.653H297.059V336.058Z" fill="white"/>
<path d="M287.396 336.058V336.269L297.06 336.346V336.058H287.396Z" fill="#EBEBEB"/>
<g opacity="0.2">
<path d="M290.723 336.558L288.528 338.96V337.537L289.422 336.558H290.723Z" fill="white"/>
<path d="M292.038 340.812V341.523L290.092 343.653H289.442L292.038 340.812Z" fill="white"/>
<path d="M295.927 336.558V337.267L292.418 341.107V340.395L295.925 336.558H295.927Z" fill="white"/>
</g>
<g opacity="0.2">
<path d="M286.277 319.737H287.58L284.78 322.801V321.376L286.277 319.737Z" fill="white"/>
<path d="M288.822 316.952L291.756 313.741V315.166L289.947 317.146H288.822V316.952Z" fill="white"/>
<path d="M292.939 312.446H294.241L292.865 313.952V312.527L292.939 312.446Z" fill="white"/>
<path d="M295.799 309.316V309.855H295.306L295.799 309.316Z" fill="white"/>
<path d="M293.836 331.727L295.799 329.579V331.003L295.137 331.727H293.836Z" fill="white"/>
<path d="M299.433 327.026L296.907 329.79V328.366L298.132 327.026H299.433Z" fill="white"/>
<path d="M292.865 331.475L295.799 328.264V328.427L292.865 331.638V331.475Z" fill="white"/>
<path d="M297.079 327.026L296.907 327.214V327.051L296.93 327.026H297.079Z" fill="white"/>
<path d="M299.842 323.84V324.003L299.444 324.438H299.295L299.842 323.84Z" fill="white"/>
<path d="M284.78 324.022L287.714 320.811V320.974L284.78 324.185V324.022Z" fill="white"/>
<path d="M288.822 319.737H288.844L288.822 319.761V319.737Z" fill="white"/>
<path d="M291.062 317.146L291.756 316.386V316.549L291.211 317.146H291.062Z" fill="white"/>
<path d="M295.357 312.446H295.506L292.865 315.336V315.173L295.357 312.446Z" fill="white"/>
<path d="M299.842 307.538V307.701L297.873 309.855H297.724L299.842 307.538Z" fill="white"/>
<path d="M284.78 315.791L287.714 312.58V312.743L284.78 315.954V315.791Z" fill="white"/>
<path d="M290.203 309.855L291.756 308.156V308.319L290.352 309.855H290.203Z" fill="white"/>
<path d="M294.648 305.154L292.865 307.105V306.942L294.499 305.154H294.648Z" fill="white"/>
<path d="M287.714 306.012V306.727L284.855 309.855H284.78V309.224L287.714 306.012Z" fill="white"/>
<path d="M284.78 330.247L287.714 327.036V327.751L284.78 330.962V330.247Z" fill="white"/>
<path d="M294.383 319.737H295.036L292.865 322.113L291.756 323.326L290.74 324.438H290.088L291.756 322.612L292.865 321.399L294.383 319.737Z" fill="white"/>
<path d="M299.842 313.764V314.478L297.403 317.146H296.907V316.975L299.842 313.764Z" fill="white"/>
<path d="M284.821 324.438L287.714 321.272V321.985L285.472 324.438H284.821Z" fill="white"/>
<path d="M289.117 319.737H289.768L288.822 320.772V320.059L289.117 319.737Z" fill="white"/>
<path d="M291.484 317.146L291.756 316.848V317.146H291.484Z" fill="white"/>
<path d="M295.778 312.446H295.799V313.137L292.865 316.348V315.634L295.778 312.446Z" fill="white"/>
<path d="M299.842 307.999V308.712L298.797 309.855H298.146L299.842 307.999Z" fill="white"/>
<path d="M286.767 327.026H286.915L284.78 329.364V329.201L286.767 327.026Z" fill="white"/>
<path d="M293.427 319.737H293.576L292.865 320.515L291.756 321.728L289.28 324.438H289.131L293.427 319.737Z" fill="white"/>
<path d="M295.794 317.146L295.799 317.141V317.146H295.794Z" fill="white"/>
<path d="M299.842 312.717V312.879L296.907 316.091V315.928L299.842 312.717Z" fill="white"/>
</g>
<path d="M256.316 343.653C279.376 343.576 305.245 343.575 328.305 343.653C305.245 343.731 279.376 343.729 256.316 343.653Z" fill="#263238"/>
<path d="M287.945 304L287.215 302.675H287.01V304H286.155V300.49H287.59C287.866 300.49 288.101 300.538 288.295 300.635C288.491 300.732 288.638 300.865 288.735 301.035C288.831 301.202 288.88 301.388 288.88 301.595C288.88 301.828 288.813 302.037 288.68 302.22C288.55 302.403 288.356 302.533 288.1 302.61L288.91 304H287.945ZM287.01 302.07H287.54C287.696 302.07 287.813 302.032 287.89 301.955C287.97 301.878 288.01 301.77 288.01 301.63C288.01 301.497 287.97 301.392 287.89 301.315C287.813 301.238 287.696 301.2 287.54 301.2H287.01V302.07ZM290.271 301.175V301.885H291.416V302.545H290.271V303.315H291.566V304H289.416V300.49H291.566V301.175H290.271ZM295.162 300.49V304H294.307V302.555H292.977V304H292.122V300.49H292.977V301.865H294.307V300.49H295.162ZM297.964 303.38H296.654L296.444 304H295.549L296.819 300.49H297.809L299.079 304H298.174L297.964 303.38ZM297.744 302.72L297.309 301.435L296.879 302.72H297.744Z" fill="white"/>
<rect x="141" y="779" width="18" height="69" fill="#D9D9D9"/>
<path d="M477 459C474.5 441.962 467.344 427.616 458.298 413.048C449.252 398.479 435.994 385.242 419.279 374.091C402.565 362.941 382.722 354.096 360.883 348.061C339.044 342.027 315.638 343.5 292 343.5C268.362 343.5 244.956 342.027 223.117 348.061C201.278 354.096 181.435 362.941 164.721 374.091C148.006 385.242 134.748 398.479 125.702 413.048C116.656 427.616 112 443.231 112 459L292 459H477Z" fill="#D1EFE3"/>
<g opacity="0.5">
<path d="M333.117 330H498.269V689.269H333.117V330Z" fill="#E63B11"/>
<g opacity="0.3">
<path d="M345.704 637.564H484.126V689.257H345.704V637.564Z" fill="black"/>
</g>
<path d="M333.116 369.399H440.832V624.438H333.116V369.399Z" fill="#455A64"/>
<path d="M333.117 627.948H498.269V637.564H333.117V627.948Z" fill="#E63B11"/>
<path d="M345.715 649.133H371.053V684.542H345.715V649.133Z" fill="#455A64"/>
<path d="M345.119 685.139H371.638V648.548H345.119V685.139ZM370.468 683.969H346.289V649.718H370.468V683.969Z" fill="#E0E0E0"/>
<g opacity="0.3">
<path d="M345.704 651.122L371.053 661.428V669.511L345.704 658.468V651.122Z" fill="white"/>
</g>
<g opacity="0.3">
<path d="M345.704 661.755L371.053 673.09V675.313L345.704 663.825V661.755Z" fill="white"/>
</g>
<path d="M369.954 637.564H384.611V689.257H369.954V637.564Z" fill="#E63B11"/>
<path d="M333 637.564H346.652V689.257H333V637.564Z" fill="#E63B11"/>
<g opacity="0.3">
<path d="M368.199 351.898H382.518V360.508H368.199V351.898Z" fill="white"/>
</g>
<g opacity="0.3">
<path d="M387.138 347.091H401.456V355.7H387.138V347.091Z" fill="white"/>
</g>
<path d="M333.117 625.62H442.002V368.229H333.117V370.568H439.662V623.28H333.117V625.62Z" fill="#E0E0E0"/>
<path d="M333.116 426.204H440.832V430.509H333.116V426.204Z" fill="#E0E0E0"/>
<path d="M333.116 492.719H440.832V497.024H333.116V492.719Z" fill="#E0E0E0"/>
<path d="M333.116 559.234H440.832V563.539H333.116V559.234Z" fill="#E0E0E0"/>
<path d="M363.286 369.399V624.415C363.286 624.486 363.258 624.555 363.207 624.605C363.157 624.656 363.088 624.684 363.017 624.684C362.945 624.684 362.877 624.656 362.827 624.605C362.776 624.555 362.748 624.486 362.748 624.415V369.399C362.748 369.327 362.776 369.259 362.827 369.209C362.877 369.158 362.945 369.13 363.017 369.13C363.088 369.13 363.157 369.158 363.207 369.209C363.258 369.259 363.286 369.327 363.286 369.399Z" fill="#E0E0E0"/>
<path d="M440.223 593.871H333.772C333.7 593.871 333.632 593.843 333.581 593.793C333.531 593.742 333.503 593.674 333.503 593.602C333.503 593.531 333.531 593.463 333.581 593.412C333.632 593.362 333.7 593.333 333.772 593.333H440.223C440.295 593.333 440.363 593.362 440.414 593.412C440.464 593.463 440.492 593.531 440.492 593.602C440.492 593.674 440.464 593.742 440.414 593.793C440.363 593.843 440.295 593.871 440.223 593.871Z" fill="#E0E0E0"/>
<path d="M440.223 528.398H333.772C333.7 528.398 333.632 528.37 333.581 528.319C333.531 528.269 333.503 528.2 333.503 528.129C333.503 528.057 333.531 527.989 333.581 527.939C333.632 527.888 333.7 527.86 333.772 527.86H440.223C440.295 527.86 440.363 527.888 440.414 527.939C440.464 527.989 440.492 528.057 440.492 528.129C440.492 528.2 440.464 528.269 440.414 528.319C440.363 528.37 440.295 528.398 440.223 528.398Z" fill="#E0E0E0"/>
<path d="M440.223 462.983H333.772C333.7 462.983 333.632 462.954 333.581 462.904C333.531 462.853 333.503 462.785 333.503 462.714C333.503 462.642 333.531 462.574 333.581 462.523C333.632 462.473 333.7 462.444 333.772 462.444H440.223C440.295 462.444 440.363 462.473 440.414 462.523C440.464 462.574 440.492 462.642 440.492 462.714C440.492 462.785 440.464 462.853 440.414 462.904C440.363 462.954 440.295 462.983 440.223 462.983Z" fill="#E0E0E0"/>
<path d="M440.223 398.164H333.772C333.7 398.164 333.632 398.136 333.581 398.085C333.531 398.035 333.503 397.966 333.503 397.895C333.503 397.824 333.531 397.755 333.581 397.705C333.632 397.654 333.7 397.626 333.772 397.626H440.223C440.295 397.626 440.363 397.654 440.414 397.705C440.464 397.755 440.492 397.824 440.492 397.895C440.492 397.966 440.464 398.035 440.414 398.085C440.363 398.136 440.295 398.164 440.223 398.164Z" fill="#E0E0E0"/>
<g opacity="0.3">
<path d="M333 388.7L440.224 456.362V476.389L333.117 411.886L333 388.7Z" fill="white"/>
</g>
<g opacity="0.3">
<path d="M333 513.658L440.224 581.32V601.358L333.117 536.844L333 513.658Z" fill="white"/>
</g>
<g opacity="0.3">
<path d="M333 441.903L440.224 509.564V517.507L333.117 452.443L333 441.903Z" fill="white"/>
</g>
<path d="M346.689 347L343.149 342.35V347H340.584V336.47H343.149V341.09L346.659 336.47H349.674L345.594 341.63L349.824 347H346.689ZM356.413 347L354.223 343.025H353.608V347H351.043V336.47H355.348C356.178 336.47 356.883 336.615 357.463 336.905C358.053 337.195 358.493 337.595 358.783 338.105C359.073 338.605 359.218 339.165 359.218 339.785C359.218 340.485 359.018 341.11 358.618 341.66C358.228 342.21 357.648 342.6 356.878 342.83L359.308 347H356.413ZM353.608 341.21H355.198C355.668 341.21 356.018 341.095 356.248 340.865C356.488 340.635 356.608 340.31 356.608 339.89C356.608 339.49 356.488 339.175 356.248 338.945C356.018 338.715 355.668 338.6 355.198 338.6H353.608V341.21ZM367.383 345.14H363.453L362.823 347H360.138L363.948 336.47H366.918L370.728 347H368.013L367.383 345.14ZM366.723 343.16L365.418 339.305L364.128 343.16H366.723ZM381.307 347H378.742L374.452 340.505V347H371.887V336.47H374.452L378.742 342.995V336.47H381.307V347ZM389.272 347L385.732 342.35V347H383.167V336.47H385.732V341.09L389.242 336.47H392.257L388.177 341.63L392.407 347H389.272ZM396.191 338.525V340.655H399.626V342.635H396.191V344.945H400.076V347H393.626V336.47H400.076V338.525H396.191ZM411.161 347H408.596L404.306 340.505V347H401.741V336.47H404.306L408.596 342.995V336.47H411.161V347ZM422.14 336.47V347H419.575V342.665H415.585V347H413.02V336.47H415.585V340.595H419.575V336.47H422.14ZM430.547 345.14H426.617L425.987 347H423.302L427.112 336.47H430.082L433.892 347H431.177L430.547 345.14ZM429.887 343.16L428.582 339.305L427.292 343.16H429.887ZM437.571 336.47V342.77C437.571 343.4 437.726 343.885 438.036 344.225C438.346 344.565 438.801 344.735 439.401 344.735C440.001 344.735 440.461 344.565 440.781 344.225C441.101 343.885 441.261 343.4 441.261 342.77V336.47H443.826V342.755C443.826 343.695 443.626 344.49 443.226 345.14C442.826 345.79 442.286 346.28 441.606 346.61C440.936 346.94 440.186 347.105 439.356 347.105C438.526 347.105 437.781 346.945 437.121 346.625C436.471 346.295 435.956 345.805 435.576 345.155C435.196 344.495 435.006 343.695 435.006 342.755V336.47H437.571ZM449.438 347.105C448.668 347.105 447.978 346.98 447.368 346.73C446.758 346.48 446.268 346.11 445.898 345.62C445.538 345.13 445.348 344.54 445.328 343.85H448.058C448.098 344.24 448.233 344.54 448.463 344.75C448.693 344.95 448.993 345.05 449.363 345.05C449.743 345.05 450.043 344.965 450.263 344.795C450.483 344.615 450.593 344.37 450.593 344.06C450.593 343.8 450.503 343.585 450.323 343.415C450.153 343.245 449.938 343.105 449.678 342.995C449.428 342.885 449.068 342.76 448.598 342.62C447.918 342.41 447.363 342.2 446.933 341.99C446.503 341.78 446.133 341.47 445.823 341.06C445.513 340.65 445.358 340.115 445.358 339.455C445.358 338.475 445.713 337.71 446.423 337.16C447.133 336.6 448.058 336.32 449.198 336.32C450.358 336.32 451.293 336.6 452.003 337.16C452.713 337.71 453.093 338.48 453.143 339.47H450.368C450.348 339.13 450.223 338.865 449.993 338.675C449.763 338.475 449.468 338.375 449.108 338.375C448.798 338.375 448.548 338.46 448.358 338.63C448.168 338.79 448.073 339.025 448.073 339.335C448.073 339.675 448.233 339.94 448.553 340.13C448.873 340.32 449.373 340.525 450.053 340.745C450.733 340.975 451.283 341.195 451.703 341.405C452.133 341.615 452.503 341.92 452.813 342.32C453.123 342.72 453.278 343.235 453.278 343.865C453.278 344.465 453.123 345.01 452.813 345.5C452.513 345.99 452.073 346.38 451.493 346.67C450.913 346.96 450.228 347.105 449.438 347.105Z" fill="white"/>
</g>
<path d="M297 459C294.5 448.5 287.344 439.66 278.298 430.681C269.252 421.703 255.994 413.546 239.279 406.674C222.565 399.803 202.722 394.352 180.883 390.633C159.044 386.914 135.638 385 112 385C88.362 385 64.9556 386.914 43.117 390.633C21.2784 394.352 1.43532 399.803 -15.2792 406.674C-31.9938 413.546 -45.2525 421.703 -54.2983 430.681C-63.3442 439.66 -68 449.282 -68 459L112 459H297Z" fill="#BEE8D6"/>
<rect x="298.727" y="337" width="0.363636" height="10" fill="#9D9D9D"/>
<path d="M302 338.379L299 339.574V337.185L302 338.379Z" fill="#E63B11"/>
<rect x="93.75" y="361.329" width="0.964286" height="23.6712" fill="#9D9D9D"/>
<path d="M87 364.452L93.75 361.462V367.442L87 364.452Z" fill="#E63B11"/>
<path d="M95 385H102C89.9633 401.235 92.7981 424.062 108.44 436.86L135.5 459H89.5L79.6246 438.877C70.1804 419.632 76.8211 396.362 95 385Z" fill="#9EA1A2"/>
<path d="M289.5 343.5H295C291.397 347.43 286.821 350.339 281.733 351.933L273.888 354.39C257.411 359.552 243.902 371.47 236.728 387.176L229.5 403L219 399.5L219.31 398.482C226.838 373.792 247.121 355.097 272.342 349.604L273.695 349.309C279.205 348.109 284.524 346.154 289.5 343.5Z" fill="#B8BABA"/>
<path d="M203.504 504.547L200.173 503L193.801 518.124L186 534.287L191.664 536.853L198.267 519.618L203.504 504.547Z" fill="#D9D9D9"/>
<path d="M0 459L103.181 451.022C163.602 446.35 224.322 447.181 284.593 453.503L337 459H0Z" fill="#A2DFC2"/>
<path d="M173.5 448H211L250 450.5L252.332 459H170.818L173.5 448Z" fill="#83898A"/>
<path d="M213.399 454.802L211.293 454.433L212 448L213.5 448L213.399 454.802Z" fill="#D9D9D9"/>
</g>
<defs>
<linearGradient id="paint0_linear_2276_1260" x1="195" y1="315" x2="195" y2="844" gradientUnits="userSpaceOnUse">
<stop stop-color="#31B877"/>
<stop offset="1" stop-color="#31B877"/>
</linearGradient>
<linearGradient id="paint1_linear_2276_1260" x1="195" y1="0" x2="195" y2="459" gradientUnits="userSpaceOnUse">
<stop stop-color="#CEF0FF"/>
<stop offset="1" stop-color="white"/>
</linearGradient>
<clipPath id="clip0_2276_1260">
<rect width="390" height="844" fill="white"/>
</clipPath>
</defs>
</svg>
