<svg width="138" height="82" viewBox="0 0 138 82" fill="none" xmlns="http://www.w3.org/2000/svg">
<path d="M46.9881 25.1089H23.8529V78.1982H46.9881V25.1089Z" fill="#A241A7"/>
<path opacity="0.2" d="M46.9881 25.1089H23.8529V78.1982H46.9881V25.1089Z" fill="black"/>
<path d="M18.4426 24.8921H75.5259L86.1917 9.75249L97.3684 25.3256L110.511 25.1166L96.3467 6.03723L32.6999 6.30814L18.4426 24.8921Z" fill="#A241A7"/>
<path opacity="0.2" d="M18.4426 24.8921H75.5259L86.1917 9.75249L97.3684 25.3256L110.511 25.1166L96.3467 6.03723L32.6999 6.30814L18.4426 24.8921Z" fill="white"/>
<path d="M46.988 25.1167V78.1982H103.994V25.1167H97.4535L86.1916 9.75256L75.4871 24.8767L46.988 25.1167Z" fill="#A241A7"/>
<g opacity="0.2">
<path d="M55.0455 78.1982V55.1869H68.374V78.1982" fill="black"/>
</g>
<path opacity="0.7" d="M97.3761 54.5367H76.3695V67.5478H97.3761V54.5367Z" fill="white"/>
<path opacity="0.7" d="M97.3761 28.499H76.3695V41.5101H97.3761V28.499Z" fill="white"/>
<path opacity="0.7" d="M66.9807 28.6151H53.7374V41.1541H66.9807V28.6151Z" fill="white"/>
<path d="M82.5305 54.5367H82.337V67.6717H82.5305V54.5367Z" fill="#A241A7"/>
<path d="M91.2614 54.5367H91.0679V67.6717H91.2614V54.5367Z" fill="#A241A7"/>
<path d="M91.1608 61.4022H82.4299V61.5957H91.1608V61.4022Z" fill="#A241A7"/>
<path d="M82.5305 28.499H82.337V41.634H82.5305V28.499Z" fill="#A241A7"/>
<path d="M91.2614 28.499H91.0679V41.634H91.2614V28.499Z" fill="#A241A7"/>
<path d="M91.1608 35.3645H82.4299V35.558H91.1608V35.3645Z" fill="#A241A7"/>
<path d="M60.4558 28.6151H60.2623V41.1541H60.4558V28.6151Z" fill="#A241A7"/>
<path d="M66.9807 35.0936H53.7374V35.2871H66.9807V35.0936Z" fill="#A241A7"/>
<path opacity="0.7" d="M88.9704 19.8843C88.9704 20.44 88.8056 20.9832 88.4969 21.4453C88.1881 21.9073 87.7493 22.2674 87.2359 22.4801C86.7225 22.6927 86.1576 22.7484 85.6126 22.64C85.0676 22.5316 84.5669 22.264 84.174 21.871C83.7811 21.4781 83.5135 20.9774 83.4051 20.4324C83.2966 19.8874 83.3523 19.3225 83.565 18.8091C83.7776 18.2957 84.1377 17.8569 84.5998 17.5482C85.0618 17.2394 85.605 17.0746 86.1607 17.0746C86.9053 17.0767 87.6187 17.3734 88.1452 17.8998C88.6717 18.4263 88.9683 19.1398 88.9704 19.8843Z" fill="white"/>
<path d="M66.1216 16.4399L69.6665 12.0668V1.54797H62.2438V16.5173L66.1216 16.4399Z" fill="#A241A7"/>
<path opacity="0.2" d="M66.1216 16.4399V1.54797H69.6665V12.0668L66.1216 16.4399Z" fill="black"/>
<path d="M70.1697 0H61.4156V1.54802H70.1697V0Z" fill="#A241A7"/>
<path d="M47.6459 48.3369H3.93762V78.206H47.6459V48.3369Z" fill="#A241A7"/>
<path opacity="0.2" d="M30.8886 48.3369H3.93762V78.206H30.8886V48.3369Z" fill="black"/>
<path d="M25.2152 78.1518C25.1861 78.0249 25.173 77.8949 25.1765 77.7647C25.1765 77.4629 25.1765 77.0914 25.1765 76.6424C25.1765 75.6053 25.1765 74.1966 25.1145 72.4396C25.1145 68.8017 25.0681 63.7784 25.0371 57.9656L25.2539 58.1823H9.2551L9.46407 57.9656C9.46407 63.7784 9.40988 68.8017 9.38666 72.4396C9.38666 74.1966 9.34023 75.6053 9.32475 76.6424C9.32475 77.0914 9.32474 77.4629 9.28604 77.7647C9.2994 77.8934 9.2994 78.0231 9.28604 78.1518C9.25161 78.0258 9.23854 77.895 9.24735 77.7647C9.24735 77.4629 9.24735 77.0914 9.24735 76.6424C9.24735 75.6053 9.24734 74.1966 9.18541 72.4396C9.18541 68.8095 9.13899 63.7784 9.10803 57.9656V57.7488H25.5016V57.9656C25.4629 63.7784 25.4396 68.8017 25.4164 72.4396C25.4164 74.1966 25.37 75.6053 25.3545 76.6424C25.3545 77.0914 25.3545 77.4629 25.3545 77.7647C25.3204 77.8979 25.2738 78.0275 25.2152 78.1518Z" fill="#263238"/>
<path opacity="0.2" d="M45.618 57.1993H34.2633V60.0941H45.618V57.1993Z" fill="black"/>
<path d="M18.4426 24.8921V26.4324H75.4871V24.8766L18.4426 24.8921Z" fill="#A241A7"/>
<path d="M75.4871 26.4325L86.1607 11.4554L86.1916 9.75256L75.5258 24.8922L75.4871 26.4325Z" fill="#A241A7"/>
<path d="M110.232 25.1089H97.4535V26.0996H110.232V25.1089Z" fill="#A241A7"/>
<path d="M63.8305 51.6574H59.1168V53.4531H63.8305V51.6574Z" fill="#263238"/>
<path opacity="0.3" d="M18.4426 24.8921V26.4324H75.4871V24.8766L18.4426 24.8921Z" fill="black"/>
<path opacity="0.3" d="M75.4871 26.4325L86.1607 11.4554L86.1916 9.75256L75.5258 24.8922L75.4871 26.4325Z" fill="black"/>
<path opacity="0.3" d="M110.232 25.1089H97.4535V26.0996H110.232V25.1089Z" fill="black"/>
<path d="M67.2981 66.7971C67.2594 66.7971 67.2981 66.5029 66.9498 66.2785C66.861 66.2185 66.7591 66.1809 66.6526 66.1687C66.5462 66.1566 66.4384 66.1704 66.3384 66.2088C66.2212 66.2563 66.121 66.3376 66.0503 66.4424C65.9797 66.5472 65.942 66.6707 65.942 66.7971C65.942 66.9234 65.9797 67.0469 66.0503 67.1517C66.121 67.2565 66.2212 67.3379 66.3384 67.3853C66.4384 67.4238 66.5462 67.4375 66.6526 67.4254C66.7591 67.4133 66.861 67.3756 66.9498 67.3157C67.2672 67.0912 67.2594 66.7893 67.2981 66.7971C67.3368 66.8048 67.4297 67.1299 67.0659 67.4705C66.9541 67.5619 66.8208 67.6234 66.6786 67.6491C66.5364 67.6749 66.39 67.664 66.2532 67.6175C66.082 67.5591 65.9334 67.4486 65.8281 67.3015C65.7229 67.1543 65.6663 66.978 65.6663 66.7971C65.6663 66.6162 65.7229 66.4398 65.8281 66.2927C65.9334 66.1456 66.082 66.035 66.2532 65.9766C66.39 65.9301 66.5364 65.9193 66.6786 65.945C66.8208 65.9707 66.9541 66.0322 67.0659 66.1237C67.4297 66.472 67.3214 66.8203 67.2981 66.7971Z" fill="#263238"/>
<rect x="119.379" y="23.8897" width="1.38957" height="54.2724" fill="#9D9D9D"/>
<path d="M137.511 30.5626L120.628 24.0132V37.1119L137.511 30.5626Z" fill="#E63B11"/>
<path d="M30.3702 61.8399L28.7866 59L27.1932 62.1555L27.4952 82H30.078L30.3702 61.8399Z" fill="#A241A7"/>
<path opacity="0.6" d="M30.3702 61.8399L28.7866 59L27.1932 62.1555L27.4952 82H30.078L30.3702 61.8399Z" fill="white"/>
<path d="M32.8322 62.8587L34.4157 59L36.0091 62.1555L35.7072 82H33.1243L32.8322 62.8587Z" fill="#A241A7"/>
<path opacity="0.6" d="M32.8322 62.8587L34.4157 59L36.0091 62.1555L35.7072 82H33.1243L32.8322 62.8587Z" fill="white"/>
<path d="M39.1976 61.8399L40.7812 59L42.3745 62.1555L42.0726 82H39.4898L39.1976 61.8399Z" fill="#A241A7"/>
<path opacity="0.6" d="M39.1976 61.8399L40.7812 59L42.3745 62.1555L42.0726 82H39.4898L39.1976 61.8399Z" fill="white"/>
<path d="M49.4179 62.8587L47.8343 59L46.241 62.1555L46.5429 82H49.1257L49.4179 62.8587Z" fill="#A241A7"/>
<path opacity="0.6" d="M49.4179 62.8587L47.8343 59L46.241 62.1555L46.5429 82H49.1257L49.4179 62.8587Z" fill="white"/>
<g opacity="0.5">
<path d="M27.3043 69.4677L30.2611 69.3314L30.3059 66.1993L27.2576 66.3882L27.3043 69.4677Z" fill="#A241A7"/>
<path d="M32.9297 69.2107L35.904 69.0744L35.9527 65.8488L32.881 66.0377L32.9297 69.2107Z" fill="#A241A7"/>
<path d="M39.301 68.9185L42.2734 68.7802L42.3241 65.4533L39.2543 65.6442L39.301 68.9185Z" fill="#A241A7"/>
<path d="M46.2878 65.208L46.3385 68.5933L49.3323 68.457L49.3868 65.0171L46.2878 65.208Z" fill="#A241A7"/>
</g>
<path d="M50.2439 67.4049L25 68V65L50.4309 63.9417L50.2439 67.4049Z" fill="#A241A7"/>
<path opacity="0.6" d="M50.2439 67.4049L25 68V65L50.4309 63.9417L50.2439 67.4049Z" fill="white"/>
<path d="M5.37015 61.8399L3.78656 59L2.19324 62.1555L2.49515 82H5.07798L5.37015 61.8399Z" fill="#A241A7"/>
<path opacity="0.6" d="M5.37015 61.8399L3.78656 59L2.19324 62.1555L2.49515 82H5.07798L5.37015 61.8399Z" fill="white"/>
<path d="M7.83215 62.8587L9.41574 59L11.0091 62.1555L10.7072 82H8.12433L7.83215 62.8587Z" fill="#A241A7"/>
<path opacity="0.6" d="M7.83215 62.8587L9.41574 59L11.0091 62.1555L10.7072 82H8.12433L7.83215 62.8587Z" fill="white"/>
<path d="M14.1976 61.8399L15.7812 59L17.3745 62.1555L17.0726 82H14.4898L14.1976 61.8399Z" fill="#A241A7"/>
<path opacity="0.6" d="M14.1976 61.8399L15.7812 59L17.3745 62.1555L17.0726 82H14.4898L14.1976 61.8399Z" fill="white"/>
<path d="M24.4179 62.8587L22.8343 59L21.241 62.1555L21.5429 82H24.1257L24.4179 62.8587Z" fill="#A241A7"/>
<path opacity="0.6" d="M24.4179 62.8587L22.8343 59L21.241 62.1555L21.5429 82H24.1257L24.4179 62.8587Z" fill="white"/>
<g opacity="0.5">
<path d="M2.30432 70.4678L5.26112 70.3315L5.30592 67.1993L2.25757 67.3883L2.30432 70.4678Z" fill="#A241A7"/>
<path d="M7.92968 70.2107L10.904 70.0744L10.9527 66.8488L7.88098 67.0377L7.92968 70.2107Z" fill="#A241A7"/>
<path d="M14.301 69.9185L17.2734 69.7802L17.3241 66.4533L14.2543 66.6442L14.301 69.9185Z" fill="#A241A7"/>
<path d="M21.2878 66.2079L21.3385 69.5932L24.3323 69.4568L24.3868 66.017L21.2878 66.2079Z" fill="#A241A7"/>
</g>
<path d="M25.2439 67.9999L0.0467475 68.5619L0 65.5194L25.2439 64.9999V67.9999Z" fill="#A241A7"/>
<path opacity="0.6" d="M25.2439 68.0001L0.0467475 68.5619L0 65.5194L25.2439 65.0001V68.0001Z" fill="white"/>
</svg>
